PathFileType	4	(X/Y/Z)	 s02c0102.trc
DataRate	CameraRate	NumFrames	NumMarkers	Units	OrigDataRate	OrigDataStartFrame	OrigNumFrames
200	200	4	51	mm	200	1501	2000
Frame#	Time	racr			lacr			c7			jug			rlel			rdr			llel			ldr			s2			lic			ric			lasi			rasi			rpsi			lpsi			rgt			lgt			rth1			rth2			rth3			rth4			rlfc			rmfc			rsh1			rsh2			rsh3			rsh4			rlmal			rmmal			rcal			rtoe			rmt5			rmt1			lth1			lth2			lth4			lth3			llfc			lmfc			lsh1			lsh2			lsh3			lsh4			llmal			lmmal			lcal			ltoe			lmt5			SBIKE			LBIKE			RBIKE			
		X1	Y1	Z1	X2	Y2	Z2	X3	Y3	Z3	X4	Y4	Z4	X5	Y5	Z5	X6	Y6	Z6	X7	Y7	Z7	X8	Y8	Z8	X9	Y9	Z9	X10	Y10	Z10	X11	Y11	Z11	X12	Y12	Z12	X13	Y13	Z13	X14	Y14	Z14	X15	Y15	Z15	X16	Y16	Z16	X17	Y17	Z17	X18	Y18	Z18	X19	Y19	Z19	X20	Y20	Z20	X21	Y21	Z21	X22	Y22	Z22	X23	Y23	Z23	X24	Y24	Z24	X25	Y25	Z25	X26	Y26	Z26	X27	Y27	Z27	X28	Y28	Z28	X29	Y29	Z29	X30	Y30	Z30	X31	Y31	Z31	X32	Y32	Z32	X33	Y33	Z33	X34	Y34	Z34	X35	Y35	Z35	X36	Y36	Z36	X37	Y37	Z37	X38	Y38	Z38	X39	Y39	Z39	X40	Y40	Z40	X41	Y41	Z41	X42	Y42	Z42	X43	Y43	Z43	X44	Y44	Z44	X45	Y45	Z45	X46	Y46	Z46	X47	Y47	Z47	X48	Y48	Z48	X49	Y49	Z49	X50	Y50	Z50	X51	Y51	Z51	
1501	7.5050	557.921649	1210.838666	-126.742823	576.217889	1205.864437	-449.716952	555.878356	1236.812088	-290.389684	510.911650	1099.945650	-288.926616	558.269794	963.953576	-29.080021	720.583908	850.706362	-111.831335	535.156658	966.047033	-595.670472	705.188709	847.296997	-505.846064	19.048390	1116.256088	-327.785430	159.085306	1112.769474	-463.797176	136.433821	1116.871484	-176.445529	192.591436	1080.639725	-432.715251	189.432462	1087.125159	-200.675341	48.184094	1170.880801	-282.192063	60.443886	1182.665594	-364.033607	114.425955	1033.405822	-141.047454	105.969770	1030.141865	-505.853033	195.395797	979.583946	-131.551714	274.944094	941.349959	-132.672144	325.036604	875.401250	-111.198635	295.265070	963.698468	-155.211684	413.897225	759.493638	-145.402080	407.897683	741.232220	-253.707350	412.803709	645.253973	-128.120447	420.394986	557.860959	-146.327204	385.947778	478.592353	-143.687145	432.075177	559.199235	-184.318638	351.499830	365.777970	-149.749483	363.258242	385.562102	-230.611111	278.105143	315.481002	-190.998039	565.817867	306.223254	-185.524708	455.395951	292.396664	-126.506663	483.203538	310.782813	-232.322996	232.331590	956.257112	-506.260458	311.767459	921.024968	-501.841540	330.907153	944.522790	-481.044963	363.922783	848.961258	-507.975098	428.084899	772.158421	-486.935563	424.028427	737.978637	-383.743348	367.656715	688.271417	-507.665275	319.029452	618.623646	-492.204655	238.294335	577.818440	-497.320271	333.488012	605.481087	-455.380720	148.744098	518.222827	-487.754519	163.706992	503.724248	-410.844023	72.055310	530.390152	-444.879180	236.560565	295.919286	-434.455521	154.349812	361.679538	-501.071516	-162.482210	859.902185	-310.275867	37.188587	86.259348	-514.227989	33.918220	83.067837	-114.083766	
1502	7.5100	558.176780	1209.747569	-127.016878	575.274348	1206.741304	-451.102909	555.732784	1237.008456	-291.320688	509.508981	1100.559353	-290.614199	559.890290	963.654944	-27.761526	721.104369	850.039216	-111.401978	535.468000	966.278009	-596.535367	705.282141	847.472373	-505.950822	19.630814	1114.511527	-326.898448	159.950448	1110.974254	-462.448392	137.745070	1114.842500	-175.348813	192.728083	1079.736505	-431.532282	190.809453	1085.221178	-199.909178	48.785909	1167.621349	-280.541668	61.010464	1179.910178	-362.777603	114.960612	1030.978424	-139.953058	107.251732	1029.386752	-505.570741	196.273886	975.810664	-130.549193	274.758140	935.502554	-132.412705	323.563238	868.552455	-110.724326	296.316053	958.187469	-153.646260	409.725163	750.556736	-145.362434	403.957096	732.425520	-252.991478	408.982418	636.856013	-127.479463	417.447115	549.446951	-145.528735	383.426188	469.999980	-142.874908	429.183410	550.756933	-183.480221	350.425492	356.930150	-148.924615	361.790283	376.765289	-229.706537	276.359876	307.687113	-189.996774	563.971293	293.876801	-185.865681	453.606687	281.814592	-126.365531	481.282390	300.141259	-232.182841	234.669899	958.193270	-506.138175	314.981372	925.119704	-501.727986	333.561614	948.990093	-480.955378	369.054876	854.309559	-508.033320	434.567272	778.955617	-486.985558	430.675883	744.905115	-383.647312	373.545710	695.781417	-507.173435	324.106028	626.719678	-491.998019	242.789778	587.036662	-496.922458	338.657704	613.375999	-455.362535	152.525213	528.725332	-487.260439	168.021721	514.411615	-410.521965	75.713491	540.795250	-443.933079	239.353002	306.051312	-434.395784	157.477694	372.280854	-500.853088	-162.478357	859.930452	-310.391254	37.206010	86.201810	-514.271176	33.388323	83.548443	-114.212743	
1503	7.5150	558.461063	1208.943421	-127.478641	574.220394	1207.861386	-452.561661	555.521056	1237.542875	-292.384342	508.046597	1101.525964	-292.432698	561.511327	963.586102	-26.622199	721.742707	849.385264	-111.007516	535.782412	966.593438	-596.994339	705.727769	847.798370	-506.363205	20.308284	1112.470231	-325.787788	161.040169	1109.649019	-462.106240	139.076374	1112.899268	-174.250475	193.030688	1079.173609	-431.004684	192.616431	1083.712055	-198.874994	49.786557	1163.712214	-279.468919	61.767138	1176.877499	-361.624598	115.948058	1028.270852	-139.701277	108.635394	1028.715168	-505.136465	197.651079	972.420598	-128.275785	274.808508	929.948982	-131.827794	322.338686	861.837275	-110.120858	297.248215	952.597298	-151.714659	405.591592	742.046950	-145.096511	400.002529	723.815889	-252.144214	404.672184	628.570856	-126.635229	413.917196	541.226119	-144.476313	380.419901	461.538537	-141.789358	425.810990	542.617754	-182.339527	348.711289	348.284518	-148.004036	359.362827	368.464863	-228.699432	273.539219	300.763730	-188.423938	561.573623	281.768123	-186.239145	451.198348	271.426110	-126.218743	478.689946	289.559868	-232.120907	236.918395	960.441369	-505.838260	318.027230	929.439799	-501.786261	336.104059	953.728170	-480.926939	373.796043	859.861212	-508.078542	440.899643	786.074699	-486.894625	437.023026	752.138659	-383.493740	379.520981	703.463288	-506.856956	329.408679	635.028570	-491.661384	247.614669	596.238376	-496.513070	344.043773	621.730544	-455.668212	156.630127	539.071831	-486.746658	171.158961	524.562193	-409.987583	79.551853	551.349906	-443.563297	242.792785	316.076991	-434.354822	161.235779	382.832383	-500.852105	-162.477855	860.055957	-310.171110	37.213776	86.247979	-514.224577	33.934398	83.071625	-114.088469	
1504	7.5200	558.781125	1208.583312	-128.080654	572.989048	1209.219054	-454.083661	555.146855	1238.373913	-293.618401	506.878558	1102.642113	-294.256393	563.341307	963.751521	-25.753620	722.543739	848.943123	-110.690666	536.061881	966.949082	-597.107607	706.181700	847.958101	-506.281164	20.999188	1110.394336	-324.381312	160.476156	1109.869894	-462.810236	140.461386	1111.262417	-173.164215	193.350276	1078.718049	-430.337365	194.011209	1082.244267	-198.093457	50.858019	1160.071537	-278.093351	61.595194	1174.432421	-360.111400	117.074094	1025.918034	-139.129863	109.983483	1028.126058	-504.432480	198.728268	968.532037	-127.934836	274.947573	924.403223	-131.053677	320.764379	855.185360	-109.503819	297.548349	946.182203	-151.706589	401.363099	733.530633	-145.652859	395.983564	715.386100	-251.101279	399.962869	620.776589	-125.597888	409.652154	533.606005	-142.791164	377.006061	453.410374	-140.478361	422.070575	534.820777	-180.798863	346.336756	339.880247	-146.942035	357.087060	360.122413	-227.471543	270.680089	293.807743	-187.379088	558.299858	269.818279	-186.370453	448.032164	261.082447	-126.032630	475.487448	279.071908	-231.833872	238.939809	962.955266	-505.386428	320.831563	933.989055	-501.736511	338.395022	958.671048	-480.923770	378.207015	865.679852	-508.215458	447.059380	793.592787	-486.664065	442.993056	759.652524	-383.284043	385.456816	711.366437	-506.508988	334.708763	643.369314	-491.189483	252.553359	605.275970	-495.956997	349.380559	630.329992	-455.856253	160.889288	549.199431	-486.196994	175.383522	534.517207	-409.342678	83.542597	561.481790	-443.239136	246.929955	326.163873	-434.347132	165.569073	393.106533	-500.666744	-162.417868	860.164917	-309.994011	37.215033	86.228332	-514.239713	33.951801	83.055653	-114.096062	
